<svg width="42" height="48" viewBox="0 0 42 48" fill="none" xmlns="http://www.w3.org/2000/svg">
<path fill-rule="evenodd" clip-rule="evenodd" d="M6.5 0.648682L13.5078 7.28281L0.5 7.27515V39.4624H34.5V27.1557L41.5 33.7825V0.648682H6.5ZM34.1924 26.377L14.3226 7.56664H34.1924V26.377ZM28.0231 34.7542H5.88008V13.1066H7.4453V33.2884H28.0231V34.7542ZM11.1089 43.7478L10.291 45.4324L9.47314 43.7478H8.78711L9.98096 45.9939V47.3025H10.6011V45.9939L11.7925 43.7478H11.1089ZM12.1367 47.3025L12.4248 46.4749H13.8018L14.0923 47.3025H14.7368L13.3916 43.7478H12.8374L11.4946 47.3025H12.1367ZM13.1133 44.5022L13.6284 45.9768H12.5981L13.1133 44.5022ZM16.3701 45.8914C16.2806 46.0281 16.2358 46.1786 16.2358 46.343C16.2358 46.6425 16.3408 46.8858 16.5508 47.073C16.7624 47.2585 17.0439 47.3513 17.3955 47.3513C17.7471 47.3513 18.0498 47.2561 18.3037 47.0657L18.5039 47.3025H19.1924L18.6699 46.6848C18.875 46.4049 18.9775 46.046 18.9775 45.6082H18.4624C18.4624 45.8474 18.4128 46.0647 18.3135 46.26L17.6274 45.4495L17.8691 45.2737C18.04 45.15 18.1629 45.0263 18.2378 44.9026C18.3127 44.7773 18.3501 44.6405 18.3501 44.4924C18.3501 44.2678 18.2671 44.0798 18.1011 43.9285C17.9367 43.7755 17.7251 43.699 17.4663 43.699C17.1798 43.699 16.952 43.7804 16.7827 43.9431C16.6134 44.1042 16.5288 44.324 16.5288 44.6023C16.5288 44.7162 16.5557 44.8342 16.6094 44.9563C16.6647 45.0784 16.7616 45.2265 16.8999 45.4006C16.6362 45.5894 16.4596 45.753 16.3701 45.8914ZM17.9741 46.6775C17.8 46.811 17.6128 46.8777 17.4126 46.8777C17.2352 46.8777 17.0936 46.8264 16.9878 46.7239C16.882 46.6213 16.8291 46.4879 16.8291 46.3235C16.8291 46.1331 16.9268 45.9638 17.1221 45.8157L17.1978 45.762L17.9741 46.6775ZM17.3369 45.1028C17.1693 44.8961 17.0854 44.7244 17.0854 44.5876C17.0854 44.4688 17.1196 44.3704 17.188 44.2922C17.2563 44.2141 17.3483 44.175 17.4639 44.175C17.5713 44.175 17.66 44.2084 17.73 44.2751C17.8 44.3403 17.835 44.4192 17.835 44.512C17.835 44.6519 17.7845 44.7667 17.6836 44.8562L17.6079 44.9172L17.3369 45.1028ZM23.123 47.0339C23.3672 46.8207 23.5072 46.5245 23.543 46.1453H22.9277C22.8952 46.3992 22.8179 46.5806 22.6958 46.6897C22.5737 46.7987 22.3914 46.8533 22.1489 46.8533C21.8836 46.8533 21.6818 46.7524 21.5435 46.5505C21.4067 46.3487 21.3384 46.0557 21.3384 45.6716V45.3567C21.3416 44.9775 21.4149 44.6902 21.5581 44.4949C21.703 44.2979 21.9097 44.1995 22.1782 44.1995C22.4093 44.1995 22.5843 44.2564 22.7031 44.3704C22.8236 44.4827 22.8984 44.6666 22.9277 44.9221H23.543C23.5039 44.5331 23.3647 44.232 23.1255 44.0188C22.8862 43.8056 22.5705 43.699 22.1782 43.699C21.8869 43.699 21.6297 43.7681 21.4067 43.9065C21.1854 44.0448 21.0153 44.2418 20.8965 44.4973C20.7777 44.7528 20.7183 45.0483 20.7183 45.3835V45.7156C20.7231 46.0427 20.7842 46.33 20.9014 46.5774C21.0186 46.8248 21.1846 47.016 21.3994 47.1511C21.6159 47.2846 21.8657 47.3513 22.1489 47.3513C22.5542 47.3513 22.8789 47.2455 23.123 47.0339ZM26.7534 46.5359C26.8739 46.2722 26.9341 45.9662 26.9341 45.6179V45.4202C26.9325 45.0735 26.8706 44.7699 26.7485 44.5095C26.6265 44.2475 26.4531 44.0473 26.2285 43.9089C26.0055 43.769 25.7492 43.699 25.4595 43.699C25.1698 43.699 24.9126 43.7698 24.688 43.9114C24.465 44.0513 24.2917 44.254 24.168 44.5193C24.0459 44.7846 23.9849 45.0906 23.9849 45.4373V45.6375C23.9865 45.9776 24.0483 46.2779 24.1704 46.5383C24.2941 46.7987 24.4683 46.9998 24.6929 47.1414C24.9191 47.2813 25.1763 47.3513 25.4644 47.3513C25.7557 47.3513 26.0129 47.2813 26.2358 47.1414C26.4604 46.9998 26.633 46.7979 26.7534 46.5359ZM26.0918 44.5266C26.2415 44.7366 26.3164 45.0385 26.3164 45.4324V45.6179C26.3164 46.0183 26.2423 46.3227 26.0942 46.531C25.9478 46.7393 25.7378 46.8435 25.4644 46.8435C25.1942 46.8435 24.9826 46.7369 24.8296 46.5237C24.6782 46.3105 24.6025 46.0085 24.6025 45.6179V45.4128C24.6058 45.0304 24.6823 44.7349 24.832 44.5266C24.9834 44.3167 25.1925 44.2117 25.4595 44.2117C25.7329 44.2117 25.9437 44.3167 26.0918 44.5266Z" fill="#AFB1B8"/>
</svg>
